<?xml version="1.0" encoding="UTF-8" standalone="no"?>
<!DOCTYPE svg PUBLIC "-//W3C//DTD SVG 1.1//EN" "http://www.w3.org/Graphics/SVG/1.1/DTD/svg11.dtd">
<svg width="100%" height="100%" viewBox="0 0 960 961" version="1.1" xmlns="http://www.w3.org/2000/svg" xmlns:xlink="http://www.w3.org/1999/xlink" xml:space="preserve" xmlns:serif="http://www.serif.com/" style="fill-rule:evenodd;clip-rule:evenodd;stroke-linejoin:round;stroke-miterlimit:2;">
    <g id="Mesa-de-trabajo2" serif:id="Mesa de trabajo2" transform="matrix(0.5,0,0,0.889129,0,1004.715762)">
        <rect x="0" y="-1130" width="1920" height="1080" style="fill:none;"/>
        <g transform="matrix(2,0,0,1.124696,-934.440258,-1317.175821)">
            <g transform="matrix(1,0,0,1,467.220129,166.423449)">
                <path d="M960,66.353L960,893.906C960,930.528 930.268,960.259 893.647,960.259L66.353,960.259C29.732,960.259 0,930.528 0,893.906L0,66.353C0,29.732 29.732,0 66.353,0L893.647,0C930.268,0 960,29.732 960,66.353Z"/>
            </g>
            <g transform="matrix(2.555613,0,0,2.555613,-1317.481119,-952.101845)">
                <path d="M756.863,732.797L756.863,562.64L781.571,562.64L781.571,586.415L781.804,586.415C785.533,570.099 798.353,560.309 816.768,560.309C842.175,560.309 858.957,578.956 858.957,608.559L858.957,644.688C858.957,674.524 842.408,693.172 816.768,693.172C798.586,693.172 785.533,683.382 781.804,667.065L781.337,667.065L782.037,696.202L782.037,732.797L756.863,732.797ZM807.91,671.261C824.227,671.261 833.783,661.471 833.783,643.523L833.783,609.958C833.783,592.009 824.227,582.219 807.91,582.219C791.827,582.219 782.037,592.476 782.037,610.191L782.037,643.057C782.037,661.005 791.827,671.261 807.91,671.261Z" style="fill:white;"/>
            </g>
            <g transform="matrix(2.555613,0,0,2.555613,-1441.779033,-1082.7373)">
                <path d="M946.833,693.172C934.246,693.172 926.321,685.48 926.321,672.893C926.321,660.072 934.246,651.914 946.833,651.914C959.42,651.914 967.346,660.072 967.346,672.893C967.346,685.48 959.42,693.172 946.833,693.172Z" style="fill:white;"/>
            </g>
            <g transform="matrix(2.555613,0,0,2.555613,-1652.576423,-958.058796)">
                <path d="M1035.642,690.841L1035.642,667.998L1080.163,667.998L1080.163,585.483L1040.304,585.483L1040.304,562.64L1105.337,562.64L1105.337,667.998L1146.594,667.998L1146.594,690.841L1035.642,690.841Z" style="fill:rgb(143,0,168);"/>
            </g>
        </g>
    </g>
</svg>
