<?xml version="1.0" encoding="UTF-8" standalone="no"?>
<!DOCTYPE svg PUBLIC "-//W3C//DTD SVG 1.1//EN" "http://www.w3.org/Graphics/SVG/1.1/DTD/svg11.dtd">
<svg width="100%" height="100%" viewBox="0 0 1920 547" version="1.1" xmlns="http://www.w3.org/2000/svg" xmlns:xlink="http://www.w3.org/1999/xlink" xml:space="preserve" xmlns:serif="http://www.serif.com/" style="fill-rule:evenodd;clip-rule:evenodd;stroke-linejoin:round;stroke-miterlimit:2;">
    <g transform="matrix(1,0,0,1,0,-1010.259312)">
        <g id="Mesa-de-trabajo1" serif:id="Mesa de trabajo1" transform="matrix(1,0,0,0.506112,0,1010.259312)">
            <rect x="0" y="0" width="1920" height="1080" style="fill:none;"/>
            <g transform="matrix(1.168099,0,0,2.307986,-161.37515,-727.024461)">
                <g transform="matrix(233.092864,0,0,233.092864,679.356192,610.160952)">
                    <g id="portix.one">
                        <path d="M0.36,-0L0.515,-0L0.515,-0.098L0.365,-0.098C0.331,-0.098 0.309,-0.122 0.309,-0.157L0.309,-0.452L0.525,-0.452L0.525,-0.55L0.309,-0.55L0.309,-0.705L0.201,-0.705L0.201,-0.55L0.049,-0.55L0.049,-0.452L0.201,-0.452L0.201,-0.156C0.201,-0.06 0.263,-0 0.36,-0Z" style="fill-rule:nonzero;"/>
                    </g>
                </g>
                <path d="M279.602,652.118L279.602,481.96L304.31,481.96L304.31,505.735L304.543,505.735C308.272,489.419 321.092,479.629 339.507,479.629C364.914,479.629 381.697,498.276 381.697,527.879L381.697,564.009C381.697,593.844 365.147,612.492 339.507,612.492C321.326,612.492 308.272,602.702 304.543,586.385L304.077,586.385L304.776,615.522L304.776,652.118L279.602,652.118ZM330.649,590.581C346.966,590.581 356.523,580.791 356.523,562.843L356.523,529.278C356.523,511.33 346.966,501.54 330.649,501.54C314.566,501.54 304.776,511.796 304.776,529.511L304.776,562.377C304.776,580.325 314.566,590.581 330.649,590.581Z"/>
                <path d="M469.573,612.259C437.639,612.259 417.826,592.912 417.826,562.61L417.826,529.511C417.826,499.209 437.639,479.862 469.573,479.862C501.506,479.862 521.552,499.209 521.552,529.511L521.552,562.61C521.552,592.912 501.506,612.259 469.573,612.259ZM469.573,590.115C486.355,590.115 496.378,580.325 496.378,562.61L496.378,529.511C496.378,511.563 486.355,502.006 469.573,502.006C452.79,502.006 443,511.563 443,529.511L443,562.61C443,580.325 452.79,590.115 469.573,590.115Z"/>
                <path d="M563.043,610.161L563.043,481.96L587.751,481.96L587.751,506.435L588.217,506.435C590.548,489.419 603.368,479.629 622.715,479.629C649.287,479.629 666.536,498.043 666.536,527.18L666.536,536.97L640.663,536.97L640.663,529.278C640.663,511.563 631.339,501.54 614.09,501.54C597.308,501.54 588.217,511.33 588.217,530.21L588.217,610.161L563.043,610.161Z"/>
                <path d="M838.092,610.161L838.092,587.318L882.613,587.318L882.613,504.803L842.754,504.803L842.754,481.96L907.787,481.96L907.787,587.318L949.045,587.318L949.045,610.161L838.092,610.161Z" style="fill:rgb(143,0,168);"/>
                <path d="M969.091,610.161L1014.078,543.963L971.888,481.96L1000.791,481.96L1023.401,517.39C1025.732,521.119 1028.063,525.781 1029.229,528.578C1030.161,525.781 1032.492,521.119 1034.823,517.39L1057.433,481.96L1086.336,481.96L1044.147,544.196L1088.9,610.161L1059.997,610.161L1035.056,571.701C1032.725,567.971 1030.394,562.61 1029.229,559.813C1027.83,562.61 1025.266,567.971 1022.935,571.701L997.761,610.161L969.091,610.161Z"/>
                <path d="M1168.851,612.492C1156.264,612.492 1148.339,604.8 1148.339,592.213C1148.339,579.393 1156.264,571.234 1168.851,571.234C1181.438,571.234 1189.363,579.393 1189.363,592.213C1189.363,604.8 1181.438,612.492 1168.851,612.492Z" style="fill:rgb(143,0,168);"/>
                <path d="M1308.707,612.259C1276.773,612.259 1256.96,592.912 1256.96,562.61L1256.96,529.511C1256.96,499.209 1276.773,479.862 1308.707,479.862C1340.641,479.862 1360.687,499.209 1360.687,529.511L1360.687,562.61C1360.687,592.912 1340.641,612.259 1308.707,612.259ZM1308.707,590.115C1325.49,590.115 1335.513,580.325 1335.513,562.61L1335.513,529.511C1335.513,511.563 1325.49,502.006 1308.707,502.006C1291.924,502.006 1282.134,511.563 1282.134,529.511L1282.134,562.61C1282.134,580.325 1291.924,590.115 1308.707,590.115Z" style="fill:rgb(143,0,168);"/>
                <path d="M1398.215,610.161L1398.215,481.96L1423.156,481.96L1423.156,506.435L1423.389,506.435C1425.72,489.652 1438.073,479.629 1457.42,479.629C1482.827,479.629 1499.377,497.111 1499.377,524.849L1499.377,610.161L1474.203,610.161L1474.203,527.646C1474.203,510.863 1464.646,501.54 1449.029,501.54C1433.179,501.54 1423.389,511.33 1423.389,529.278L1423.389,610.161L1398.215,610.161Z" style="fill:rgb(143,0,168);"/>
                <path d="M1588.418,612.492C1556.951,612.492 1536.672,592.679 1536.672,562.843L1536.672,529.278C1536.672,499.209 1556.951,479.629 1588.418,479.629C1619.886,479.629 1640.398,499.209 1640.398,529.278L1640.398,552.121L1560.913,552.121L1560.913,562.843C1560.913,581.957 1570.47,591.98 1588.651,591.98C1603.103,591.98 1612.427,586.852 1614.758,576.829L1639.699,576.829C1635.969,598.506 1615.69,612.492 1588.418,612.492ZM1560.913,529.278L1560.913,535.105L1615.923,534.872L1615.923,529.045C1615.923,510.164 1606.367,499.675 1588.418,499.675C1570.47,499.675 1560.913,510.397 1560.913,529.278Z" style="fill:rgb(143,0,168);"/>
            </g>
        </g>
    </g>
</svg>
