<svg viewBox="0 0 768 432" xmlns="http://www.w3.org/2000/svg" role="img" aria-label="A mobile device connecting to a printer over Bluetooth">
  <defs>
    <pattern id="grid" width="32" height="32" patternUnits="userSpaceOnUse">
      <path d="M 32 0 L 0 0 0 32" fill="none" stroke="#1b1b1e" stroke-width="1"/>
    </pattern>
  </defs>

  <rect width="768" height="432" fill="#000000"/>
  <rect width="768" height="432" fill="url(#grid)"/>

  <g font-family="'JetBrains Mono', monospace">
    <!-- Mobile device -->
    <g transform="translate(180,140)">
      <rect x="0" y="0" width="70" height="130" rx="10" fill="#0a0a0a" stroke="#262629" stroke-width="1.5"/>
      <rect x="10" y="14" width="50" height="90" rx="2" fill="none" stroke="#525252" stroke-width="1.2"/>
      <circle cx="35" cy="116" r="4" fill="#525252"/>
      <text x="35" y="-12" text-anchor="middle" font-size="11" fill="#a3a3a3" letter-spacing="1">MOBILE</text>
    </g>

    <!-- Bluetooth symbol -->
    <g transform="translate(360,190)">
      <path d="M0 -34 L18 -22 L0 -10 L0 10 L18 22 L0 34 L0 -34 M0 -10 L-18 -22 M0 10 L-18 22"
            fill="none" stroke="#b9d9fb" stroke-width="2.4" stroke-linejoin="round" stroke-linecap="round"/>
    </g>
    <path d="M330 190 L342 190" stroke="#b9d9fb" stroke-width="1.5" stroke-dasharray="3 4"/>
    <path d="M398 190 L410 190" stroke="#b9d9fb" stroke-width="1.5" stroke-dasharray="3 4"/>

    <!-- Printer -->
    <g transform="translate(430,168)">
      <rect x="0" y="18" width="112" height="44" rx="6" fill="#141416" stroke="#262629" stroke-width="1.5"/>
      <rect x="10" y="0" width="92" height="24" rx="3" fill="#0a0a0a" stroke="#262629" stroke-width="1.5"/>
      <circle cx="94" cy="40" r="3.5" fill="#b9d9fb"/>
      <rect x="24" y="62" width="60" height="50" fill="#ffffff"/>
      <line x1="32" y1="74" x2="76" y2="74" stroke="#a3a3a3" stroke-width="1.6"/>
      <line x1="32" y1="84" x2="68" y2="84" stroke="#a3a3a3" stroke-width="1.6"/>
      <line x1="32" y1="94" x2="76" y2="94" stroke="#171717" stroke-width="2.2"/>
      <text x="56" y="-10" text-anchor="middle" font-size="11" fill="#a3a3a3" letter-spacing="1">PRINTER</text>
    </g>
  </g>

  <text x="384" y="392" text-anchor="middle" font-family="'JetBrains Mono', monospace" font-size="13" fill="#525252" letter-spacing="2">PORTIX.ONE / KNOWLEDGE</text>
</svg>
