<svg viewBox="0 0 768 432" xmlns="http://www.w3.org/2000/svg" role="img" aria-label="An admission credential printed as a ticket with a QR code for entry validation">
  <defs>
    <pattern id="grid" width="32" height="32" patternUnits="userSpaceOnUse">
      <path d="M 32 0 L 0 0 0 32" fill="none" stroke="#1b1b1e" stroke-width="1"/>
    </pattern>
  </defs>
  <rect width="768" height="432" fill="#000000"/>
  <rect width="768" height="432" fill="url(#grid)"/>
  <g font-family="'JetBrains Mono', monospace">
    <g transform="translate(110,160)">
      <rect x="0" y="0" width="120" height="110" rx="8" fill="#0a0a0a" stroke="#262629" stroke-width="1.5"/>
      <rect x="20" y="20" width="80" height="8" fill="none" stroke="#525252" stroke-width="1.2"/>
      <text x="60" y="54" text-anchor="middle" font-size="9" fill="#b9d9fb">credential</text>
      <text x="60" y="68" text-anchor="middle" font-size="8" fill="#525252">active</text>
      <text x="60" y="-12" text-anchor="middle" font-size="11" fill="#a3a3a3" letter-spacing="1">TICKET ORDER</text>
    </g>
    <path d="M242 205 L292 205" stroke="#b9d9fb" stroke-width="1.5" stroke-dasharray="4 5"/>
    <path d="M284 199 L294 205 L284 211" fill="none" stroke="#b9d9fb" stroke-width="1.5"/>
    <g transform="translate(304,174)">
      <rect x="0" y="18" width="110" height="44" rx="6" fill="#141416" stroke="#262629" stroke-width="1.5"/>
      <rect x="10" y="0" width="90" height="24" rx="3" fill="#0a0a0a" stroke="#262629" stroke-width="1.5"/>
      <circle cx="92" cy="40" r="3.5" fill="#b9d9fb"/>
      <text x="55" y="-10" text-anchor="middle" font-size="11" fill="#a3a3a3" letter-spacing="1">PRINTER</text>
    </g>
    <path d="M414 216 L414 238" stroke="#525252" stroke-width="1.2"/>
    <rect x="354" y="238" width="120" height="120" fill="#ffffff"/>
    <rect x="354" y="238" width="120" height="14" fill="#e5e5e5"/>
    <g transform="translate(374,262)">
      <rect x="0" y="0" width="80" height="80" fill="#ffffff" stroke="#262629" stroke-width="1"/>
      <rect x="5" y="5" width="18" height="18" fill="none" stroke="#171717" stroke-width="3.5"/>
      <rect x="10" y="10" width="8" height="8" fill="#171717"/>
      <rect x="57" y="5" width="18" height="18" fill="none" stroke="#171717" stroke-width="3.5"/>
      <rect x="62" y="10" width="8" height="8" fill="#171717"/>
      <rect x="5" y="57" width="18" height="18" fill="none" stroke="#171717" stroke-width="3.5"/>
      <rect x="10" y="62" width="8" height="8" fill="#171717"/>
      <g fill="#171717">
        <rect x="32" y="8" width="5" height="5"/>
        <rect x="44" y="8" width="5" height="5"/>
        <rect x="32" y="18" width="5" height="5"/>
        <rect x="50" y="18" width="5" height="5"/>
        <rect x="28" y="32" width="5" height="5"/>
        <rect x="40" y="32" width="5" height="5"/>
        <rect x="52" y="32" width="5" height="5"/>
        <rect x="28" y="44" width="5" height="5"/>
        <rect x="46" y="44" width="5" height="5"/>
        <rect x="32" y="56" width="5" height="5"/>
        <rect x="44" y="62" width="5" height="5"/>
        <rect x="56" y="56" width="5" height="5"/>
      </g>
    </g>
    <text x="414" y="226" text-anchor="middle" font-size="11" fill="#a3a3a3" letter-spacing="1">TICKET</text>
  </g>
  <text x="384" y="392" text-anchor="middle" font-family="'JetBrains Mono', monospace" font-size="13" fill="#525252" letter-spacing="2">PORTIX.ONE / KNOWLEDGE</text>
</svg>
