<svg viewBox="0 0 768 432" xmlns="http://www.w3.org/2000/svg" role="img" aria-label="A packed shipment routed to a label printer producing a shipping label">
  <defs>
    <pattern id="grid" width="32" height="32" patternUnits="userSpaceOnUse">
      <path d="M 32 0 L 0 0 0 32" fill="none" stroke="#1b1b1e" stroke-width="1"/>
    </pattern>
  </defs>
  <rect width="768" height="432" fill="#000000"/>
  <rect width="768" height="432" fill="url(#grid)"/>
  <g font-family="'JetBrains Mono', monospace">
    <g transform="translate(110,160)">
      <rect x="0" y="0" width="120" height="110" rx="8" fill="#0a0a0a" stroke="#262629" stroke-width="1.5"/>
      <rect x="26" y="28" width="68" height="54" fill="none" stroke="#b9d9fb" stroke-width="1.6"/>
      <line x1="26" y1="55" x2="94" y2="55" stroke="#b9d9fb" stroke-width="1.2"/>
      <line x1="60" y1="28" x2="60" y2="82" stroke="#b9d9fb" stroke-width="1.2"/>
      <text x="60" y="-12" text-anchor="middle" font-size="11" fill="#a3a3a3" letter-spacing="1">PACKED</text>
    </g>
    <path d="M242 205 L292 205" stroke="#b9d9fb" stroke-width="1.5" stroke-dasharray="4 5"/>
    <path d="M284 199 L294 205 L284 211" fill="none" stroke="#b9d9fb" stroke-width="1.5"/>
    <g transform="translate(304,174)">
      <rect x="0" y="18" width="110" height="44" rx="6" fill="#141416" stroke="#262629" stroke-width="1.5"/>
      <rect x="10" y="0" width="90" height="24" rx="3" fill="#0a0a0a" stroke="#262629" stroke-width="1.5"/>
      <circle cx="92" cy="40" r="3.5" fill="#b9d9fb"/>
      <text x="55" y="-10" text-anchor="middle" font-size="11" fill="#a3a3a3" letter-spacing="1">LABEL PRINTER</text>
    </g>
    <path d="M414 216 L414 238" stroke="#525252" stroke-width="1.2"/>
    <g transform="translate(354,238)">
      <rect x="0" y="0" width="120" height="80" rx="4" fill="#ffffff"/>
      <rect x="12" y="10" width="96" height="10" fill="#a3a3a3"/>
      <rect x="12" y="26" width="70" height="8" fill="#a3a3a3"/>
      <g transform="translate(14,42)" fill="#171717">
        <rect x="0" y="0" width="3" height="24"/>
        <rect x="6" y="0" width="2" height="24"/>
        <rect x="11" y="0" width="4" height="24"/>
        <rect x="18" y="0" width="2" height="24"/>
        <rect x="23" y="0" width="3" height="24"/>
        <rect x="29" y="0" width="5" height="24"/>
        <rect x="37" y="0" width="2" height="24"/>
        <rect x="42" y="0" width="4" height="24"/>
        <rect x="49" y="0" width="2" height="24"/>
        <rect x="54" y="0" width="3" height="24"/>
        <rect x="60" y="0" width="5" height="24"/>
        <rect x="68" y="0" width="2" height="24"/>
        <rect x="73" y="0" width="4" height="24"/>
        <rect x="80" y="0" width="2" height="24"/>
      </g>
    </g>
    <text x="414" y="226" text-anchor="middle" font-size="11" fill="#a3a3a3" letter-spacing="1">SHIPPING LABEL</text>
  </g>
  <text x="384" y="392" text-anchor="middle" font-family="'JetBrains Mono', monospace" font-size="13" fill="#525252" letter-spacing="2">PORTIX.ONE / KNOWLEDGE</text>
</svg>
