<svg viewBox="0 0 768 432" xmlns="http://www.w3.org/2000/svg" role="img" aria-label="An order snapshot routed to a kitchen printer producing a kitchen ticket">
  <defs>
    <pattern id="grid" width="32" height="32" patternUnits="userSpaceOnUse">
      <path d="M 32 0 L 0 0 0 32" fill="none" stroke="#1b1b1e" stroke-width="1"/>
    </pattern>
  </defs>
  <rect width="768" height="432" fill="#000000"/>
  <rect width="768" height="432" fill="url(#grid)"/>
  <g font-family="'JetBrains Mono', monospace">
    <g transform="translate(110,160)">
      <rect x="0" y="0" width="120" height="110" rx="8" fill="#0a0a0a" stroke="#262629" stroke-width="1.5"/>
      <text x="60" y="50" text-anchor="middle" font-size="9" fill="#b9d9fb">TABLE 12</text>
      <line x1="24" y1="64" x2="96" y2="64" stroke="#525252" stroke-width="1.6"/>
      <line x1="24" y1="76" x2="80" y2="76" stroke="#525252" stroke-width="1.6"/>
      <line x1="24" y1="88" x2="96" y2="88" stroke="#525252" stroke-width="1.6"/>
      <text x="60" y="-12" text-anchor="middle" font-size="11" fill="#a3a3a3" letter-spacing="1">ORDER v3</text>
    </g>
    <path d="M242 205 L292 205" stroke="#b9d9fb" stroke-width="1.5" stroke-dasharray="4 5"/>
    <path d="M284 199 L294 205 L284 211" fill="none" stroke="#b9d9fb" stroke-width="1.5"/>
    <text x="267" y="192" text-anchor="middle" font-size="8" fill="#525252">kitchen-hot</text>
    <g transform="translate(304,174)">
      <rect x="0" y="18" width="110" height="44" rx="6" fill="#141416" stroke="#262629" stroke-width="1.5"/>
      <rect x="10" y="0" width="90" height="24" rx="3" fill="#0a0a0a" stroke="#262629" stroke-width="1.5"/>
      <circle cx="92" cy="40" r="3.5" fill="#b9d9fb"/>
      <text x="55" y="-10" text-anchor="middle" font-size="11" fill="#a3a3a3" letter-spacing="1">STATION PRINTER</text>
    </g>
    <path d="M414 216 L414 238" stroke="#525252" stroke-width="1.2"/>
    <rect x="364" y="238" width="100" height="120" fill="#ffffff"/>
    <rect x="364" y="238" width="100" height="14" fill="#e5e5e5"/>
    <line x1="374" y1="264" x2="454" y2="264" stroke="#a3a3a3" stroke-width="1.6"/>
    <line x1="374" y1="278" x2="430" y2="278" stroke="#a3a3a3" stroke-width="1.6"/>
    <line x1="374" y1="292" x2="454" y2="292" stroke="#a3a3a3" stroke-width="1.6"/>
    <line x1="374" y1="312" x2="454" y2="312" stroke="#171717" stroke-width="2.2"/>
    <text x="414" y="226" text-anchor="middle" font-size="11" fill="#a3a3a3" letter-spacing="1">KITCHEN TICKET</text>
  </g>
  <text x="384" y="392" text-anchor="middle" font-family="'JetBrains Mono', monospace" font-size="13" fill="#525252" letter-spacing="2">PORTIX.ONE / KNOWLEDGE</text>
</svg>
