<svg viewBox="0 0 768 432" xmlns="http://www.w3.org/2000/svg" role="img" aria-label="A cash drawer connected to a receipt printer that fails to open on command">
  <defs>
    <pattern id="grid" width="32" height="32" patternUnits="userSpaceOnUse">
      <path d="M 32 0 L 0 0 0 32" fill="none" stroke="#1b1b1e" stroke-width="1"/>
    </pattern>
  </defs>
  <rect width="768" height="432" fill="#000000"/>
  <rect width="768" height="432" fill="url(#grid)"/>
  <g font-family="'JetBrains Mono', monospace">
    <g transform="translate(300,168)">
      <rect x="0" y="18" width="112" height="44" rx="6" fill="#141416" stroke="#262629" stroke-width="1.5"/>
      <rect x="10" y="0" width="92" height="24" rx="3" fill="#0a0a0a" stroke="#262629" stroke-width="1.5"/>
      <circle cx="94" cy="40" r="3.5" fill="#525252"/>
      <text x="56" y="-10" text-anchor="middle" font-size="11" fill="#a3a3a3" letter-spacing="1">PRINTER</text>
    </g>
    <path d="M356 212 L356 234" stroke="#c96a6a" stroke-width="1.5" stroke-dasharray="3 4"/>
    <g transform="translate(296,234)">
      <rect x="0" y="0" width="120" height="60" rx="4" fill="#141416" stroke="#c96a6a" stroke-width="1.8"/>
      <rect x="10" y="8" width="100" height="10" fill="#0a0a0a"/>
      <circle cx="60" cy="40" r="8" fill="none" stroke="#c96a6a" stroke-width="1.8"/>
      <path d="M54 40 L66 40 M60 34 L60 46" stroke="#c96a6a" stroke-width="1.6"/>
      <text x="60" y="-10" text-anchor="middle" font-size="11" fill="#a3a3a3" letter-spacing="1">DRAWER</text>
      <text x="60" y="80" text-anchor="middle" font-size="10" fill="#c96a6a">locked</text>
    </g>
  </g>
  <text x="384" y="392" text-anchor="middle" font-family="'JetBrains Mono', monospace" font-size="13" fill="#525252" letter-spacing="2">PORTIX.ONE / KNOWLEDGE</text>
</svg>
