<svg viewBox="0 0 768 432" xmlns="http://www.w3.org/2000/svg" role="img" aria-label="A versioned invoice artifact printed through a browser or authenticated local adapter">
  <defs>
    <pattern id="grid" width="32" height="32" patternUnits="userSpaceOnUse">
      <path d="M 32 0 L 0 0 0 32" fill="none" stroke="#1b1b1e" stroke-width="1"/>
    </pattern>
  </defs>
  <rect width="768" height="432" fill="#000000"/>
  <rect width="768" height="432" fill="url(#grid)"/>
  <g font-family="'JetBrains Mono', monospace">
    <g transform="translate(120,150)">
      <rect x="0" y="0" width="120" height="110" rx="8" fill="#0a0a0a" stroke="#262629" stroke-width="1.5"/>
      <text x="60" y="50" text-anchor="middle" font-size="12" fill="#b9d9fb">v3</text>
      <text x="60" y="70" text-anchor="middle" font-size="9" fill="#525252">sha256 checksum</text>
      <text x="60" y="-12" text-anchor="middle" font-size="11" fill="#a3a3a3" letter-spacing="1">INVOICE ARTIFACT</text>
    </g>
    <path d="M252 205 L302 205" stroke="#b9d9fb" stroke-width="1.5" stroke-dasharray="4 5"/>
    <path d="M294 199 L304 205 L294 211" fill="none" stroke="#b9d9fb" stroke-width="1.5"/>
    <g transform="translate(314,174)">
      <rect x="0" y="18" width="110" height="44" rx="6" fill="#141416" stroke="#262629" stroke-width="1.5"/>
      <rect x="10" y="0" width="90" height="24" rx="3" fill="#0a0a0a" stroke="#262629" stroke-width="1.5"/>
      <circle cx="92" cy="40" r="3.5" fill="#b9d9fb"/>
      <text x="55" y="-10" text-anchor="middle" font-size="11" fill="#a3a3a3" letter-spacing="1">PRINTER</text>
    </g>
    <path d="M369 216 L369 238" stroke="#525252" stroke-width="1.2"/>
    <g transform="translate(324,238)">
      <rect x="0" y="0" width="90" height="110" fill="#ffffff"/>
      <line x1="14" y1="18" x2="76" y2="18" stroke="#a3a3a3" stroke-width="2"/>
      <line x1="14" y1="32" x2="60" y2="32" stroke="#a3a3a3" stroke-width="2"/>
      <line x1="14" y1="52" x2="76" y2="52" stroke="#a3a3a3" stroke-width="1.6"/>
      <line x1="14" y1="64" x2="70" y2="64" stroke="#a3a3a3" stroke-width="1.6"/>
      <line x1="14" y1="90" x2="76" y2="90" stroke="#171717" stroke-width="2.2"/>
      <text x="45" y="-10" text-anchor="middle" font-size="11" fill="#a3a3a3" letter-spacing="1">PDF</text>
    </g>
  </g>
  <text x="384" y="392" text-anchor="middle" font-family="'JetBrains Mono', monospace" font-size="13" fill="#525252" letter-spacing="2">PORTIX.ONE / KNOWLEDGE</text>
</svg>
