<svg viewBox="0 0 768 432" xmlns="http://www.w3.org/2000/svg" role="img" aria-label="A network printer showing as offline within a local network">
  <defs>
    <pattern id="grid" width="32" height="32" patternUnits="userSpaceOnUse">
      <path d="M 32 0 L 0 0 0 32" fill="none" stroke="#1b1b1e" stroke-width="1"/>
    </pattern>
  </defs>
  <rect width="768" height="432" fill="#000000"/>
  <rect width="768" height="432" fill="url(#grid)"/>
  <g font-family="'JetBrains Mono', monospace">
    <g transform="translate(280,150)">
      <circle cx="60" cy="60" r="14" fill="none" stroke="#a3a3a3" stroke-width="1.6"/>
      <circle cx="10" cy="20" r="8" fill="none" stroke="#525252" stroke-width="1.4"/>
      <circle cx="110" cy="20" r="8" fill="none" stroke="#525252" stroke-width="1.4"/>
      <circle cx="10" cy="100" r="8" fill="none" stroke="#525252" stroke-width="1.4"/>
      <line x1="60" y1="60" x2="10" y2="20" stroke="#262629" stroke-width="1.2"/>
      <line x1="60" y1="60" x2="110" y2="20" stroke="#262629" stroke-width="1.2"/>
      <line x1="60" y1="60" x2="10" y2="100" stroke="#262629" stroke-width="1.2"/>
      <line x1="60" y1="60" x2="110" y2="100" stroke="#c96a6a" stroke-width="1.6" stroke-dasharray="3 3"/>
      <text x="60" y="-14" text-anchor="middle" font-size="11" fill="#a3a3a3" letter-spacing="1">NETWORK</text>
    </g>
    <g transform="translate(378,208)">
      <rect x="0" y="18" width="112" height="44" rx="6" fill="#141416" stroke="#c96a6a" stroke-width="1.8"/>
      <rect x="10" y="0" width="92" height="24" rx="3" fill="#0a0a0a" stroke="#c96a6a" stroke-width="1.6"/>
      <circle cx="94" cy="40" r="3.5" fill="#c96a6a"/>
      <text x="56" y="82" text-anchor="middle" font-size="10" fill="#c96a6a">offline</text>
    </g>
  </g>
  <text x="384" y="392" text-anchor="middle" font-family="'JetBrains Mono', monospace" font-size="13" fill="#525252" letter-spacing="2">PORTIX.ONE / KNOWLEDGE</text>
</svg>
