<svg viewBox="0 0 768 432" xmlns="http://www.w3.org/2000/svg" role="img" aria-label="A print request blocked by a locked authorization boundary">
  <defs>
    <pattern id="grid" width="32" height="32" patternUnits="userSpaceOnUse">
      <path d="M 32 0 L 0 0 0 32" fill="none" stroke="#1b1b1e" stroke-width="1"/>
    </pattern>
  </defs>
  <rect width="768" height="432" fill="#000000"/>
  <rect width="768" height="432" fill="url(#grid)"/>
  <g font-family="'JetBrains Mono', monospace">
    <g transform="translate(150,166)">
      <rect x="0" y="0" width="110" height="80" rx="8" fill="#0a0a0a" stroke="#262629" stroke-width="1.5"/>
      <text x="55" y="50" text-anchor="middle" font-size="14" fill="#a3a3a3">&lt;/&gt;</text>
      <text x="55" y="-12" text-anchor="middle" font-size="11" fill="#a3a3a3" letter-spacing="1">REQUEST</text>
    </g>
    <path d="M272 206 L322 206" stroke="#c96a6a" stroke-width="1.5" stroke-dasharray="4 5"/>
    <g transform="translate(358,168)">
      <rect x="12" y="26" width="52" height="42" rx="6" fill="#0a0a0a" stroke="#c96a6a" stroke-width="1.8"/>
      <path d="M22 26 v-12 a16 16 0 0 1 32 0 v12" fill="none" stroke="#c96a6a" stroke-width="2.2"/>
      <circle cx="38" cy="46" r="5" fill="#c96a6a"/>
      <rect x="35" y="48" width="6" height="12" fill="#c96a6a"/>
      <text x="38" y="-12" text-anchor="middle" font-size="11" fill="#a3a3a3" letter-spacing="1">DENIED</text>
    </g>
    <path d="M456 206 L506 206" stroke="#c96a6a" stroke-width="1.5" stroke-dasharray="4 5"/>
    <g transform="translate(514,174)">
      <rect x="0" y="18" width="112" height="44" rx="6" fill="#141416" stroke="#262629" stroke-width="1.5"/>
      <rect x="10" y="0" width="92" height="24" rx="3" fill="#0a0a0a" stroke="#262629" stroke-width="1.5"/>
      <circle cx="94" cy="40" r="3.5" fill="#525252"/>
      <text x="56" y="-10" text-anchor="middle" font-size="11" fill="#a3a3a3" letter-spacing="1">PRINTER</text>
    </g>
  </g>
  <text x="384" y="392" text-anchor="middle" font-family="'JetBrains Mono', monospace" font-size="13" fill="#525252" letter-spacing="2">PORTIX.ONE / KNOWLEDGE</text>
</svg>
