<svg viewBox="0 0 768 432" xmlns="http://www.w3.org/2000/svg" role="img" aria-label="A verification URL encoded as a QR code and printed on a receipt">
  <defs>
    <pattern id="grid" width="32" height="32" patternUnits="userSpaceOnUse">
      <path d="M 32 0 L 0 0 0 32" fill="none" stroke="#1b1b1e" stroke-width="1"/>
    </pattern>
  </defs>
  <rect width="768" height="432" fill="#000000"/>
  <rect width="768" height="432" fill="url(#grid)"/>
  <g font-family="'JetBrains Mono', monospace">
    <g transform="translate(110,150)">
      <rect x="0" y="0" width="120" height="110" rx="8" fill="#0a0a0a" stroke="#262629" stroke-width="1.5"/>
      <text x="60" y="50" text-anchor="middle" font-size="9" fill="#b9d9fb">/r/verify?t=…</text>
      <text x="60" y="70" text-anchor="middle" font-size="9" fill="#525252">opaque token</text>
      <text x="60" y="-12" text-anchor="middle" font-size="11" fill="#a3a3a3" letter-spacing="1">EXAMPLE</text>
    </g>
    <path d="M242 205 L292 205" stroke="#b9d9fb" stroke-width="1.5" stroke-dasharray="4 5"/>
    <path d="M284 199 L294 205 L284 211" fill="none" stroke="#b9d9fb" stroke-width="1.5"/>
    <rect x="304" y="140" width="150" height="150" fill="#ffffff"/>
    <rect x="304" y="140" width="150" height="14" fill="#e5e5e5"/>
    <g transform="translate(329,164)">
      <rect x="0" y="0" width="100" height="100" fill="#ffffff" stroke="#262629" stroke-width="1"/>
      <rect x="6" y="6" width="22" height="22" fill="none" stroke="#171717" stroke-width="4"/>
      <rect x="13" y="13" width="8" height="8" fill="#171717"/>
      <rect x="72" y="6" width="22" height="22" fill="none" stroke="#171717" stroke-width="4"/>
      <rect x="79" y="13" width="8" height="8" fill="#171717"/>
      <rect x="6" y="72" width="22" height="22" fill="none" stroke="#171717" stroke-width="4"/>
      <rect x="13" y="79" width="8" height="8" fill="#171717"/>
      <g fill="#171717">
        <rect x="40" y="10" width="6" height="6"/>
        <rect x="54" y="10" width="6" height="6"/>
        <rect x="40" y="22" width="6" height="6"/>
        <rect x="60" y="22" width="6" height="6"/>
        <rect x="34" y="40" width="6" height="6"/>
        <rect x="48" y="40" width="6" height="6"/>
        <rect x="62" y="40" width="6" height="6"/>
        <rect x="34" y="52" width="6" height="6"/>
        <rect x="56" y="52" width="6" height="6"/>
        <rect x="34" y="64" width="6" height="6"/>
        <rect x="48" y="64" width="6" height="6"/>
        <rect x="40" y="78" width="6" height="6"/>
        <rect x="54" y="84" width="6" height="6"/>
        <rect x="66" y="78" width="6" height="6"/>
      </g>
    </g>
    <text x="379" y="126" text-anchor="middle" font-size="11" fill="#a3a3a3" letter-spacing="1">RECEIPT</text>
  </g>
  <text x="384" y="392" text-anchor="middle" font-family="'JetBrains Mono', monospace" font-size="13" fill="#525252" letter-spacing="2">PORTIX.ONE / KNOWLEDGE</text>
</svg>
