<svg viewBox="0 0 768 432" xmlns="http://www.w3.org/2000/svg" role="img" aria-label="An immutable carrier label artifact printed through a matching printer profile">
  <defs>
    <pattern id="grid" width="32" height="32" patternUnits="userSpaceOnUse">
      <path d="M 32 0 L 0 0 0 32" fill="none" stroke="#1b1b1e" stroke-width="1"/>
    </pattern>
  </defs>
  <rect width="768" height="432" fill="#000000"/>
  <rect width="768" height="432" fill="url(#grid)"/>
  <g font-family="'JetBrains Mono', monospace">
    <g transform="translate(110,160)">
      <rect x="0" y="0" width="120" height="110" rx="8" fill="#0a0a0a" stroke="#b9d9fb" stroke-width="1.6"/>
      <rect x="30" y="30" width="60" height="50" fill="none" stroke="#b9d9fb" stroke-width="1.4"/>
      <line x1="30" y1="55" x2="90" y2="55" stroke="#b9d9fb" stroke-width="1.1"/>
      <text x="60" y="96" text-anchor="middle" font-size="9" fill="#525252">carrier artifact</text>
      <text x="60" y="-12" text-anchor="middle" font-size="11" fill="#a3a3a3" letter-spacing="1">SHIPMENT</text>
    </g>
    <path d="M242 215 L292 215" stroke="#b9d9fb" stroke-width="1.5" stroke-dasharray="4 5"/>
    <path d="M284 209 L294 215 L284 221" fill="none" stroke="#b9d9fb" stroke-width="1.5"/>
    <g transform="translate(304,182)">
      <rect x="0" y="0" width="110" height="60" rx="8" fill="#141416" stroke="#262629" stroke-width="1.5"/>
      <rect x="10" y="0" width="90" height="24" rx="3" fill="#0a0a0a" stroke="#262629" stroke-width="1.5"/>
      <circle cx="92" cy="40" r="3.5" fill="#b9d9fb"/>
      <text x="55" y="-10" text-anchor="middle" font-size="11" fill="#a3a3a3" letter-spacing="1">LABEL PRINTER</text>
    </g>
    <path d="M414 212 L414 234" stroke="#525252" stroke-width="1.2"/>
    <g transform="translate(354,234)">
      <rect x="0" y="0" width="120" height="80" rx="4" fill="#ffffff"/>
      <rect x="12" y="10" width="96" height="10" fill="#a3a3a3"/>
      <rect x="12" y="26" width="70" height="8" fill="#a3a3a3"/>
      <g transform="translate(14,42)" fill="#171717">
        <rect x="0" y="0" width="3" height="24"/>
        <rect x="6" y="0" width="2" height="24"/>
        <rect x="11" y="0" width="4" height="24"/>
        <rect x="18" y="0" width="2" height="24"/>
        <rect x="23" y="0" width="3" height="24"/>
        <rect x="29" y="0" width="5" height="24"/>
        <rect x="37" y="0" width="2" height="24"/>
        <rect x="42" y="0" width="4" height="24"/>
      </g>
      <text x="60" y="-10" text-anchor="middle" font-size="11" fill="#a3a3a3" letter-spacing="1">4×6 LABEL</text>
    </g>
  </g>
  <text x="384" y="392" text-anchor="middle" font-family="'JetBrains Mono', monospace" font-size="13" fill="#525252" letter-spacing="2">PORTIX.ONE / KNOWLEDGE</text>
</svg>
