<svg viewBox="0 0 768 432" xmlns="http://www.w3.org/2000/svg" role="img" aria-label="A scan event validated against the expected location and item before advancing the pick task state">
  <defs>
    <pattern id="grid" width="32" height="32" patternUnits="userSpaceOnUse">
      <path d="M 32 0 L 0 0 0 32" fill="none" stroke="#1b1b1e" stroke-width="1"/>
    </pattern>
  </defs>
  <rect width="768" height="432" fill="#000000"/>
  <rect width="768" height="432" fill="url(#grid)"/>
  <g font-family="'JetBrains Mono', monospace">
    <g transform="translate(110,160)">
      <rect x="0" y="0" width="110" height="110" rx="8" fill="#0a0a0a" stroke="#262629" stroke-width="1.5"/>
      <rect x="20" y="20" width="70" height="12" rx="2" fill="none" stroke="#a3a3a3" stroke-width="1.2"/>
      <circle cx="55" cy="60" r="16" fill="none" stroke="#a3a3a3" stroke-width="1.6"/>
      <path d="M43 60 L67 60 M55 48 L55 72" stroke="#a3a3a3" stroke-width="1.3"/>
      <text x="55" y="-12" text-anchor="middle" font-size="11" fill="#a3a3a3" letter-spacing="1">SCANNER</text>
    </g>
    <path d="M232 215 L282 215" stroke="#b9d9fb" stroke-width="1.5" stroke-dasharray="4 5"/>
    <path d="M274 209 L284 215 L274 221" fill="none" stroke="#b9d9fb" stroke-width="1.5"/>
    <g transform="translate(294,178)">
      <path d="M55 0 L110 22 L110 66 C110 96 84 116 55 130 C26 116 0 96 0 66 L0 22 Z"
            fill="#0a0a0a" stroke="#b9d9fb" stroke-width="1.6"/>
      <path d="M35 68 L48 82 L78 46" fill="none" stroke="#b9d9fb" stroke-width="3" stroke-linecap="round" stroke-linejoin="round"/>
      <text x="55" y="-12" text-anchor="middle" font-size="11" fill="#a3a3a3" letter-spacing="1">VALIDATED</text>
    </g>
    <path d="M424 236 L474 236" stroke="#b9d9fb" stroke-width="1.5" stroke-dasharray="4 5"/>
    <path d="M466 230 L476 236 L466 242" fill="none" stroke="#b9d9fb" stroke-width="1.5"/>
    <g transform="translate(484,206)">
      <rect x="0" y="0" width="130" height="60" rx="6" fill="#0a0a0a" stroke="#262629" stroke-width="1.5"/>
      <text x="65" y="30" text-anchor="middle" font-size="10" fill="#a3a3a3">picking</text>
      <text x="65" y="46" text-anchor="middle" font-size="8" fill="#525252">→ picked</text>
      <text x="65" y="-10" text-anchor="middle" font-size="11" fill="#a3a3a3" letter-spacing="1">TASK STATE</text>
    </g>
  </g>
  <text x="384" y="392" text-anchor="middle" font-family="'JetBrains Mono', monospace" font-size="13" fill="#525252" letter-spacing="2">PORTIX.ONE / KNOWLEDGE</text>
</svg>
