<svg viewBox="0 0 768 432" xmlns="http://www.w3.org/2000/svg" role="img" aria-label="A website streaming bytes over a serial port connection to a compatible printer">
  <defs>
    <pattern id="grid" width="32" height="32" patternUnits="userSpaceOnUse">
      <path d="M 32 0 L 0 0 0 32" fill="none" stroke="#1b1b1e" stroke-width="1"/>
    </pattern>
  </defs>

  <rect width="768" height="432" fill="#000000"/>
  <rect width="768" height="432" fill="url(#grid)"/>

  <g font-family="'JetBrains Mono', monospace">
    <g transform="translate(110,166)">
      <rect x="0" y="0" width="110" height="80" rx="8" fill="#0a0a0a" stroke="#262629" stroke-width="1.5"/>
      <text x="55" y="50" text-anchor="middle" font-size="14" fill="#a3a3a3">&lt;/&gt;</text>
      <text x="55" y="-12" text-anchor="middle" font-size="11" fill="#a3a3a3" letter-spacing="1">WEB APP</text>
    </g>

    <!-- Serial connector -->
    <g transform="translate(300,182)">
      <path d="M0 0 L60 0 L52 48 L8 48 Z" fill="none" stroke="#b9d9fb" stroke-width="1.6"/>
      <circle cx="16" cy="14" r="2.4" fill="#b9d9fb"/>
      <circle cx="30" cy="14" r="2.4" fill="#b9d9fb"/>
      <circle cx="44" cy="14" r="2.4" fill="#b9d9fb"/>
      <circle cx="20" cy="28" r="2.4" fill="#b9d9fb"/>
      <circle cx="32" cy="28" r="2.4" fill="#b9d9fb"/>
      <circle cx="42" cy="28" r="2.4" fill="#b9d9fb"/>
      <text x="30" y="-14" text-anchor="middle" font-size="11" fill="#a3a3a3" letter-spacing="1">SERIAL PORT</text>
    </g>
    <path d="M232 206 L296 206" stroke="#b9d9fb" stroke-width="1.5" stroke-dasharray="4 5"/>
    <path d="M420 206 L470 206" stroke="#b9d9fb" stroke-width="1.5" stroke-dasharray="4 5"/>
    <path d="M462 200 L472 206 L462 212" fill="none" stroke="#b9d9fb" stroke-width="1.5"/>
    <text x="440" y="192" text-anchor="middle" font-size="8" fill="#525252">9600 baud</text>

    <!-- Printer -->
    <g transform="translate(480,174)">
      <rect x="0" y="18" width="112" height="44" rx="6" fill="#141416" stroke="#262629" stroke-width="1.5"/>
      <rect x="10" y="0" width="92" height="24" rx="3" fill="#0a0a0a" stroke="#262629" stroke-width="1.5"/>
      <circle cx="94" cy="40" r="3.5" fill="#b9d9fb"/>
      <rect x="24" y="62" width="60" height="50" fill="#ffffff"/>
      <line x1="32" y1="74" x2="76" y2="74" stroke="#a3a3a3" stroke-width="1.6"/>
      <line x1="32" y1="84" x2="68" y2="84" stroke="#a3a3a3" stroke-width="1.6"/>
      <line x1="32" y1="94" x2="76" y2="94" stroke="#171717" stroke-width="2.2"/>
      <text x="56" y="-10" text-anchor="middle" font-size="11" fill="#a3a3a3" letter-spacing="1">PRINTER</text>
    </g>
  </g>

  <text x="384" y="392" text-anchor="middle" font-family="'JetBrains Mono', monospace" font-size="13" fill="#525252" letter-spacing="2">PORTIX.ONE / KNOWLEDGE</text>
</svg>
